<?xml version="1.0" standalone="no"?>
<!DOCTYPE svg PUBLIC "-//W3C//DTD SVG 20010904//EN"
 "http://www.w3.org/TR/2001/REC-SVG-20010904/DTD/svg10.dtd">
<svg version="1.0" xmlns="http://www.w3.org/2000/svg"
 width="497.000000pt" height="497.000000pt" viewBox="0 0 497.000000 497.000000"
 preserveAspectRatio="xMidYMid meet">
<metadata>
Created by potrace 1.14, written by Peter Selinger 2001-2017
</metadata>
<g transform="translate(0.000000,497.000000) scale(0.100000,-0.100000)"
fill="#000000" stroke="none">
<path d="M2290 4964 c-676 -62 -1281 -375 -1715 -889 -167 -198 -349 -520
-435 -770 -50 -144 -92 -319 -117 -475 -24 -161 -24 -529 0 -690 97 -624 397
-1164 872 -1565 198 -167 520 -349 770 -435 144 -50 319 -92 475 -117 161 -24
529 -24 690 0 530 82 1005 314 1384 676 321 307 580 761 686 1206 52 217 64
328 64 580 0 252 -12 363 -64 580 -90 375 -282 749 -533 1040 -162 188 -299
309 -507 447 -302 201 -653 337 -1020 393 -101 15 -454 28 -550 19z m550 -59
c670 -100 1259 -465 1655 -1025 l67 -95 -346 -3 -346 -2 0 -164 0 -163 53 -7
c28 -4 98 -14 155 -23 l102 -16 0 -748 0 -749 -290 0 -290 0 0 935 0 935 -360
0 -360 0 0 -165 c0 -151 2 -165 18 -165 9 0 79 -9 155 -21 l137 -22 0 -748 0
-749 -280 0 -280 0 0 935 0 935 -385 0 -385 0 0 -163 0 -163 153 -23 c83 -12
162 -25 175 -28 l23 -5 -3 -872 c-3 -865 -4 -872 -26 -951 -37 -134 -85 -220
-171 -306 -89 -89 -176 -136 -316 -171 -115 -28 -358 -31 -473 -5 -267 61
-432 216 -505 476 -20 72 -21 101 -25 592 l-3 516 53 7 c29 4 99 14 155 23
l103 16 0 163 0 164 -365 0 -366 0 4 -707 c3 -618 6 -719 21 -793 14 -71 46
-176 80 -265 21 -54 -64 103 -105 197 -95 210 -159 430 -196 668 -24 161 -24
520 0 680 27 170 53 280 101 425 136 407 356 744 681 1043 379 348 872 566
1405 622 120 12 455 4 580 -15z m1789 -1241 c131 -233 232 -534 278 -834 24
-159 24 -519 0 -680 -75 -495 -286 -944 -609 -1295 -407 -442 -908 -704 -1508
-787 -123 -17 -477 -16 -600 1 -645 89 -1188 391 -1596 886 l-49 60 65 -56
c92 -78 148 -115 255 -165 306 -143 766 -154 1105 -28 290 108 517 357 604
664 l24 85 991 3 991 2 0 1112 c0 611 2 1109 4 1107 2 -2 22 -36 45 -75z"/>
</g>
</svg>
